<svg xmlns="http://www.w3.org/2000/svg" fill="none" viewBox="0 0 190 190">
  <path fill="url(#a)" fill-rule="evenodd" d="M5.723 187.139a2.86 2.86 0 1 0-5.723 0 2.86 2.86 0 1 0 5.723 0zm26.325 0a2.86 2.86 0 1 0-5.723 0 2.86 2.86 0 1 0 5.723 0zm23.464-2.862a2.86 2.86 0 1 1 0 5.723 2.86 2.86 0 1 1 0-5.723zm29.187 2.862a2.86 2.86 0 1 0-5.723 0 2.86 2.86 0 1 0 5.723 0zm23.464-2.862a2.86 2.86 0 1 1 0 5.723 2.86 2.86 0 1 1 0-5.723zm29.186 2.862a2.86 2.86 0 1 0-5.722 0 2.86 2.86 0 1 0 5.722 0zm23.464-2.862a2.86 2.86 0 1 1 0 5.723 2.86 2.86 0 1 1 0-5.723zM190 187.139a2.86 2.86 0 1 0-5.723 0 2.86 2.86 0 1 0 5.723 0zM2.861 157.952a2.86 2.86 0 1 1 0 5.723A2.86 2.86 0 0 1 0 160.813a2.86 2.86 0 0 1 2.861-2.861zm29.187 2.861a2.86 2.86 0 1 0-5.723 0 2.86 2.86 0 1 0 5.723 0zm23.464-2.861a2.86 2.86 0 1 1 0 5.723 2.86 2.86 0 1 1 0-5.723zm29.187 2.861a2.86 2.86 0 1 0-5.723 0 2.86 2.86 0 1 0 5.723 0zm23.464-2.861a2.86 2.86 0 1 1 0 5.723 2.86 2.86 0 1 1 0-5.723zm29.186 2.861a2.86 2.86 0 1 0-5.722 0 2.86 2.86 0 1 0 5.722 0zm23.464-2.861a2.86 2.86 0 1 1 0 5.723 2.86 2.86 0 1 1 0-5.723zM190 160.813a2.86 2.86 0 1 0-5.723 0 2.86 2.86 0 1 0 5.723 0zM2.861 131.626c1.58 0 2.861 1.282 2.861 2.862a2.86 2.86 0 0 1-2.861 2.861A2.86 2.86 0 0 1 0 134.488c0-1.58 1.281-2.862 2.861-2.862zm29.187 2.862a2.86 2.86 0 1 0-5.723 0 2.86 2.86 0 1 0 5.723 0zm23.464-2.861a2.86 2.86 0 1 1 0 5.722 2.86 2.86 0 1 1 0-5.722zm29.187 2.861c0-1.58-1.281-2.862-2.861-2.862s-2.862 1.282-2.862 2.862a2.86 2.86 0 1 0 5.723 0zm23.464-2.861a2.86 2.86 0 1 1 0 5.722 2.86 2.86 0 1 1 0-5.722zm29.186 2.861a2.86 2.86 0 1 0-5.722 0 2.86 2.86 0 1 0 5.722 0zm23.464-2.862c1.581 0 2.862 1.282 2.862 2.862a2.86 2.86 0 1 1-5.723 0c0-1.58 1.281-2.862 2.861-2.862zM190 134.488c0-1.58-1.281-2.862-2.861-2.862s-2.862 1.282-2.862 2.862a2.86 2.86 0 1 0 5.723 0zM2.861 105.301a2.86 2.86 0 0 1 0 5.723A2.86 2.86 0 0 1 0 108.163a2.86 2.86 0 0 1 2.861-2.862zm29.187 2.862a2.86 2.86 0 1 0-5.723 0 2.86 2.86 0 1 0 5.723 0zm23.464-2.862a2.86 2.86 0 0 1 0 5.723 2.86 2.86 0 1 1 0-5.723zm29.187 2.862a2.86 2.86 0 1 0-5.723 0 2.86 2.86 0 1 0 5.723 0zm23.464-2.862a2.86 2.86 0 0 1 0 5.723 2.86 2.86 0 1 1 0-5.723zm29.186 2.862a2.86 2.86 0 1 0-5.722 0 2.86 2.86 0 1 0 5.722 0zm23.464-2.862a2.86 2.86 0 1 1 0 5.723 2.86 2.86 0 0 1 0-5.723zM190 108.163a2.86 2.86 0 1 0-5.723 0 2.86 2.86 0 1 0 5.723 0zM2.861 78.976a2.86 2.86 0 1 1 0 5.723A2.86 2.86 0 0 1 0 81.837a2.86 2.86 0 0 1 2.861-2.861zm29.187 2.861a2.86 2.86 0 1 0-5.723 0 2.86 2.86 0 1 0 5.723 0zm23.464-2.861a2.86 2.86 0 1 1 0 5.723 2.86 2.86 0 1 1 0-5.723zm29.187 2.862a2.86 2.86 0 1 0-5.723 0 2.86 2.86 0 1 0 5.723 0zm23.464-2.862a2.86 2.86 0 1 1 0 5.723 2.86 2.86 0 1 1 0-5.723zm29.186 2.862a2.86 2.86 0 1 0-5.722 0 2.86 2.86 0 1 0 5.722 0zm23.464-2.862a2.86 2.86 0 1 1 0 5.723 2.86 2.86 0 1 1 0-5.723zM190 81.837a2.86 2.86 0 1 0-5.723 0 2.86 2.86 0 1 0 5.723 0zM2.861 52.651a2.86 2.86 0 1 1 0 5.723A2.86 2.86 0 0 1 0 55.512a2.86 2.86 0 0 1 2.861-2.861zm29.187 2.861a2.86 2.86 0 1 0-5.723 0 2.86 2.86 0 1 0 5.723 0zm23.464-2.861a2.86 2.86 0 0 1 0 5.723 2.86 2.86 0 1 1 0-5.723zm29.187 2.861a2.86 2.86 0 1 0-5.723 0 2.86 2.86 0 1 0 5.723 0zm23.464-2.861a2.86 2.86 0 0 1 0 5.723 2.86 2.86 0 1 1 0-5.723zm29.186 2.861a2.86 2.86 0 1 0-5.722 0 2.86 2.86 0 1 0 5.722 0zm23.464-2.861a2.86 2.86 0 1 1 0 5.723 2.86 2.86 0 0 1 0-5.723zM190 55.512a2.86 2.86 0 1 0-5.723 0 2.86 2.86 0 1 0 5.723 0zM2.861 26.325a2.86 2.86 0 1 1 0 5.723A2.86 2.86 0 0 1 0 29.187a2.86 2.86 0 0 1 2.861-2.861zm29.187 2.861a2.86 2.86 0 1 0-5.723 0 2.86 2.86 0 1 0 5.723 0zm23.464-2.861a2.86 2.86 0 0 1 0 5.723 2.86 2.86 0 1 1 0-5.723zm29.187 2.861a2.86 2.86 0 1 0-5.723 0 2.86 2.86 0 1 0 5.723 0zm23.464-2.861a2.86 2.86 0 0 1 0 5.723 2.86 2.86 0 1 1 0-5.723zm29.186 2.861a2.86 2.86 0 1 0-5.722 0 2.86 2.86 0 1 0 5.722 0zm23.464-2.861a2.86 2.86 0 1 1 0 5.723 2.86 2.86 0 1 1 0-5.723zM190 29.187a2.86 2.86 0 1 0-5.723 0 2.86 2.86 0 1 0 5.723 0zM2.861 0a2.86 2.86 0 1 1 0 5.723A2.86 2.86 0 0 1 0 2.861 2.86 2.86 0 0 1 2.861 0zm29.187 2.861a2.86 2.86 0 1 0-5.723 0 2.86 2.86 0 1 0 5.723 0zM55.512 0a2.86 2.86 0 1 1 0 5.723 2.86 2.86 0 1 1 0-5.723zm29.187 2.861a2.86 2.86 0 1 0-5.723 0 2.86 2.86 0 1 0 5.723 0zM108.163 0a2.86 2.86 0 1 1 0 5.723 2.86 2.86 0 1 1 0-5.723zm29.186 2.861a2.86 2.86 0 1 0-5.722 0 2.86 2.86 0 1 0 5.722 0zM160.813 0a2.86 2.86 0 1 1 0 5.723 2.86 2.86 0 1 1 0-5.723zM190 2.861A2.86 2.86 0 0 0 187.139 0a2.86 2.86 0 0 0-2.862 2.861 2.86 2.86 0 1 0 5.723 0z"/>
  <defs>
    <linearGradient id="a" x1="0" x2="168" y1="95" y2="95" gradientUnits="userSpaceOnUse">
      <stop stop-color="#a4d421"/>
      <stop offset="1"/>
    </linearGradient>
  </defs>
</svg>
